<svg width="256" height="366" viewBox="0 0 256 366" xmlns="http://www.w3.org/2000/svg" preserveAspectRatio="xMidYMid"><path fill="#fff" d="M182.022 9.147c2.982 3.702 4.502 8.697 7.543 18.687L256 246.074a276.467 276.467 0 0 0-79.426-26.891L133.318 73.008a5.63 5.63 0 0 0-10.802.157L78.63 219.349a276.453 276.453 0 0 0-79.475 26.56L65.331 27.81c3.064-10.023 4.594-15.02 7.56-18.719C75.856 5.314 79.356 2.825 83.226 1.26 87.095-.305 91.415-.305 100.054-.305h55.792c8.639 0 12.959 0 16.828 1.565 3.87 1.565 7.37 4.054 9.348 7.887Z"/><path fill="#FF5D01" d="M189.472 256.204c-6.805 5.916-19.483 9.934-34.59 9.934-22.428 0-41.126-9.922-43.525-28.709-.965-7.564.604-15.708 3.79-22.989l.277-.62.265-.629 31.144-72.353L182.95 219.6l.245.563.26.602c4.147 9.72 10.369 24.503 6.017 35.439Zm56.815-10.342c-4.828 9.64-12.76 18.912-21.896 25.169-13.149 8.988-28.901 12.957-44.767 17.017-15.868 4.06-32.034 8.224-47.38 17.606-15.346-9.382-31.513-13.547-47.38-17.606-15.867-4.06-31.618-8.03-44.767-17.017-9.136-6.257-17.068-15.529-21.896-25.169-4.828-9.64-6.198-20.453-3.707-31.515L71.11 15.379C72.83 9.606 77.88 5.07 83.95 3.27c3.46-1.025 7.248-1.01 11.378-.994.909.004 1.842.007 2.797.007h65.46c.238 0 .468-.002.695-.004 3.457-.026 6.513-.05 9.783.98 6.435 2.018 11.123 7.042 12.698 13.29l56.634 198.845c2.49 11.063 1.12 21.875-3.708 31.516Z"/></svg>